<svg width="55" height="80" viewBox="0 0 55 80" fill="none" xmlns="http://www.w3.org/2000/svg">
<path d="M27.6212 79.5394L5.44449 73.1735L0.502441 15.8581H54.8064L49.8591 73.1649L27.6212 79.5394Z" fill="#4353AD"/>
<path d="M45.6235 69.5158L49.8508 20.5447H27.6541V74.6669L45.6235 69.5158Z" fill="#485FB5"/>
<path d="M27.6539 60.0587L27.6241 60.0667L20.053 57.9528L19.569 52.3465H12.7445L13.6969 63.3839L27.6227 67.3812L27.6539 67.3723V60.0587ZM10.6072 27.5744L11.2251 34.6037H27.6539V27.5744H10.6072ZM11.8315 41.802L12.4408 48.8316H27.6539V41.802H11.8315Z" fill="#EDEDED"/>
<path d="M33.0437 0.282134H41.2777V3.37804H36.4873V3.99751H41.2777V11.118H33.0437V7.86703H37.8345V7.24804H33.044V0.282134H33.0437ZM23.163 0.282134H31.3968V3.37804H26.6064V3.99751H31.3968V11.118H23.1633V7.86703H27.9538V7.24804H23.1629V0.282134H23.163ZM13.2825 0.282134H21.5161V3.8424H16.7258V7.40315H21.5165V10.9634H13.2825V0.282134Z" fill="#100F0D"/>
<path d="M43.4333 41.8022L44.6604 27.5746H27.6308V34.6039H37.2102L36.5917 41.8022H27.6308V48.8318H36.0022L35.2126 57.9488L27.6306 60.0646V67.3779L41.5674 63.384L41.6694 62.1966L43.2674 43.6898L43.4333 41.8022Z" fill="black"/>
</svg>
