<svg width="78" height="80" viewBox="0 0 78 80" fill="none" xmlns="http://www.w3.org/2000/svg">
<path d="M0.588867 0.28186H77.3226V79.5394H0.588867V0.28186Z" fill="#F7DF1E"/>
<path d="M20.765 66.5153L26.6372 62.8447C27.7701 64.9193 28.8006 66.6747 31.2725 66.6747C33.642 66.6747 35.1359 65.7173 35.1359 61.9935V36.6688H42.3469V62.0988C42.3469 69.8132 37.969 73.3245 31.5817 73.3245C25.8131 73.3245 22.4646 70.2387 20.7649 66.5147" fill="black"/>
<path d="M46.2637 65.7171L52.1351 62.2057C53.6808 64.8129 55.6896 66.7281 59.2435 66.7281C62.2313 66.7281 64.1367 65.1851 64.1367 63.0569C64.1367 60.5032 62.1795 59.5987 58.8828 58.1095L57.0806 57.3109C51.8779 55.0236 48.4267 52.1507 48.4267 46.0855C48.4267 40.4992 52.5473 36.2429 58.9861 36.2429C63.5704 36.2429 66.8669 37.8923 69.236 42.2018L63.6216 45.9257C62.3853 43.6382 61.0465 42.7339 58.9862 42.7339C56.8744 42.7339 55.5351 44.1172 55.5351 45.9257C55.5351 48.1603 56.8744 49.065 59.9645 50.4483L61.7672 51.2463C67.8967 53.9598 71.3479 56.726 71.3479 62.9505C71.3479 69.6544 66.2487 73.325 59.3982 73.325C52.7021 73.325 48.3753 70.0267 46.2638 65.7171" fill="black"/>
</svg>
