<svg width="190" height="56" viewBox="0 0 190 56" fill="none" xmlns="http://www.w3.org/2000/svg">
<path fill-rule="evenodd" clip-rule="evenodd" d="M176.281 22.9824C176.111 23.0171 175.941 23.3987 175.941 23.6067C175.906 24.9939 175.872 28.6704 175.872 31.1674C175.872 31.2368 175.974 31.3754 176.077 31.3754C176.587 31.4101 177.813 31.4448 178.868 31.4448C180.332 31.4448 181.183 31.2368 181.66 31.0288C182.885 30.4045 183.464 29.0517 183.464 27.5603C183.464 24.1963 181.149 22.913 177.711 22.913C177.472 22.8786 176.792 22.8786 176.281 22.9824ZM185.064 38.4853C185.064 35.0518 182.579 33.1442 178.085 33.1442C177.881 33.1442 176.451 33.1094 176.111 33.1789C176.008 33.2136 175.872 33.2831 175.872 33.3872C175.872 35.8494 175.838 39.7686 175.941 41.2944C176.008 41.9534 176.485 42.8899 177.064 43.1674C177.676 43.5142 179.073 43.5833 180.026 43.5833C182.715 43.5833 185.064 42.0576 185.064 38.4853ZM169.336 21.0751C169.676 21.0751 170.698 21.1789 173.319 21.1789C175.804 21.1789 177.779 21.1098 180.196 21.1098C183.158 21.1098 187.243 22.1848 187.243 26.6933C187.243 28.9131 185.711 30.6819 183.702 31.549C183.6 31.5837 183.6 31.6528 183.702 31.6875C186.562 32.416 189.081 34.2195 189.081 37.6182C189.081 40.9478 187.039 43.0632 184.077 44.3813C182.272 45.1789 180.026 45.4563 177.745 45.4563C176.008 45.4563 171.345 45.2483 168.757 45.3178C168.485 45.2136 168.996 43.965 169.234 43.757C169.847 43.7222 170.323 43.6875 170.97 43.4795C171.889 43.2368 171.991 42.9594 172.128 41.5374C172.196 40.3235 172.196 36.0227 172.196 32.9709C172.196 28.7743 172.23 25.9304 172.196 24.5432C172.162 23.4682 171.787 23.1213 171.038 22.913C170.459 22.8092 169.506 22.6703 168.723 22.5664C168.553 22.3928 169.132 21.2136 169.336 21.0751ZM149.693 42.6472C150.51 43.3059 152.11 43.5833 153.54 43.5833C155.378 43.5833 157.216 43.2368 158.987 41.6066C160.791 39.9419 162.05 37.3755 162.05 33.2831C162.05 29.3639 160.587 26.1731 157.591 24.3005C155.889 23.2251 153.71 22.7744 151.191 22.7744C150.442 22.7744 149.727 22.8092 149.284 23.0171C149.182 23.0866 148.944 23.3987 148.944 23.572C148.876 24.2658 148.876 29.6066 148.876 32.7282C148.876 35.9536 148.876 40.4621 148.944 40.9822C148.944 41.5027 149.182 42.3003 149.693 42.6472ZM141.965 21.0751C142.611 21.0751 145.097 21.1789 146.288 21.1789C148.433 21.1789 149.965 21.0751 154.016 21.0751C157.42 21.0751 160.28 22.0116 162.323 23.78C164.808 25.9651 166.102 28.9826 166.102 32.6587C166.102 37.8957 163.753 40.9131 161.404 42.6472C159.055 44.416 155.991 45.4563 151.633 45.4563C149.318 45.4563 145.335 45.3869 142.033 45.3521H141.999C141.829 45.0403 142.271 43.8264 142.543 43.7917C143.428 43.6875 143.667 43.6528 144.109 43.4795C144.824 43.2021 144.961 42.8205 145.063 41.5374C145.165 39.1443 145.131 36.2658 145.131 33.0056C145.131 30.6819 145.165 26.1384 145.097 24.6818C144.995 23.4682 144.484 23.156 143.463 22.9477C142.952 22.8439 142.271 22.705 141.318 22.6012C141.182 22.3581 141.794 21.2831 141.965 21.0751Z" fill="#8E714E"/>
<path fill-rule="evenodd" clip-rule="evenodd" d="M100.772 43.9996C99.9208 43.8955 99.308 43.7569 98.5588 43.41C98.4569 43.3406 98.2865 42.994 98.2865 42.8552C98.2183 41.6412 98.2183 38.1731 98.2183 35.8494C98.2183 33.9764 97.9122 32.3465 97.129 31.2021C96.2097 29.884 94.8821 29.1211 93.1799 29.1211C91.6819 29.1211 89.6733 30.1617 88.0052 31.6184C87.9711 31.6528 87.6988 31.8958 87.7329 31.5142C87.7329 31.1326 87.8011 30.3697 87.8351 29.8496C87.8692 29.3638 87.5969 29.1211 87.5969 29.1211C86.5072 29.676 83.4434 30.4045 82.32 30.5083C81.5029 30.6819 81.2988 31.4795 82.1499 31.7569H82.1839C83.1029 32.0344 83.7157 32.3465 84.1922 32.6587C84.5327 32.9361 84.4986 33.3177 84.4986 33.6299C84.5327 36.231 84.5327 40.2193 84.4308 42.4044C84.3967 43.2715 84.1585 43.5833 83.5456 43.7222L83.6135 43.6875C83.137 43.7916 82.7624 43.8955 82.1836 43.9649C81.9795 44.1729 81.9795 45.283 82.1836 45.5257C82.5582 45.5257 84.5327 45.4216 86.167 45.4216C88.4139 45.4216 89.5714 45.5257 90.1502 45.5257C90.3884 45.2483 90.4566 44.2076 90.3202 43.9649C89.6733 43.9302 89.1968 43.8611 88.7544 43.7222C88.1416 43.5833 87.9711 43.2715 87.9371 42.543C87.8692 40.7048 87.8692 36.8206 87.8692 34.1848C87.8692 33.4563 88.0734 33.1094 88.2776 32.9014C89.0605 32.208 90.3202 31.7222 91.4437 31.7222C92.533 31.7222 93.2481 32.0691 93.7928 32.5201C94.5416 33.1441 94.7799 34.0459 94.8821 34.7049C95.0522 36.1963 94.9843 39.1443 94.9843 41.7107C94.9843 43.0979 94.8821 43.4448 94.3715 43.618C94.1333 43.7222 93.5204 43.8611 92.8053 43.9302C92.5671 44.1729 92.6353 45.2483 92.8053 45.491C93.7928 45.491 94.9503 45.3868 96.6524 45.3868C98.763 45.3868 100.125 45.491 100.67 45.491C100.84 45.283 100.908 44.2771 100.772 43.9996H100.772ZM110.202 30.7513C108.398 30.7513 107.274 32.1733 107.274 34.3928C107.274 36.647 108.261 39.2481 111.053 39.2481C111.53 39.2481 112.415 39.0401 112.823 38.5547C113.47 37.9304 113.913 36.6817 113.913 35.364C113.913 32.4854 112.517 30.7513 110.202 30.7513ZM109.963 46.0806C109.283 46.0806 108.806 46.2886 108.5 46.4622C107.07 47.3984 106.423 48.3001 106.423 49.3755C106.423 50.3811 106.797 51.1787 107.615 51.8724C108.602 52.7395 109.963 53.1558 111.7 53.1558C115.172 53.1558 116.704 51.2481 116.704 49.3755C116.704 48.0574 116.057 47.1904 114.73 46.7049C113.776 46.2886 112.04 46.0806 109.963 46.0806ZM110.202 55.0979C108.125 55.0979 106.627 54.6468 105.334 53.6412C104.074 52.67 103.529 51.2134 103.529 50.2078C103.529 49.9303 103.597 49.1671 104.21 48.4737C104.585 48.0574 105.402 47.2598 107.342 45.9073C107.41 45.8726 107.444 45.8379 107.444 45.7684C107.444 45.699 107.376 45.6296 107.308 45.5952C105.708 44.9708 105.231 43.9649 105.095 43.41V43.3406C105.061 43.1326 104.993 42.9246 105.3 42.7163C105.538 42.543 105.878 42.335 106.253 42.0923C106.831 41.7454 107.444 41.3638 107.819 41.0516C107.887 40.9822 107.887 40.9131 107.887 40.8436C107.887 40.7742 107.819 40.7048 107.751 40.6704C105.368 39.8724 104.176 38.0689 104.176 35.364C104.176 33.5952 104.959 31.9996 106.355 30.9941C107.308 30.2309 109.691 29.2947 111.257 29.2947H111.36C112.959 29.3291 113.845 29.676 115.104 30.127C115.785 30.3697 116.432 30.4736 117.317 30.4736C118.645 30.4736 119.223 30.0576 119.7 29.5721C119.734 29.6413 119.802 29.8149 119.836 30.2656C119.87 30.7166 119.734 31.3753 119.394 31.8611C119.121 32.2424 118.509 32.5201 117.896 32.5201H117.725C117.113 32.4507 116.84 32.3813 116.84 32.3813L116.704 32.4507C116.67 32.5201 116.704 32.5892 116.738 32.6934L116.772 32.7629C116.84 33.075 116.977 34.0112 116.977 34.2542C116.977 37.098 115.853 38.3464 114.662 39.2828C113.504 40.1499 112.177 40.7048 110.679 40.8436C110.644 40.8436 110.508 40.8436 110.202 40.8784C110.032 40.8784 109.793 40.9131 109.759 40.9131H109.725C109.453 40.9822 108.772 41.3291 108.772 41.9187C108.772 42.4388 109.079 43.0632 110.542 43.1673C110.849 43.202 111.155 43.202 111.496 43.2368C113.436 43.3753 115.853 43.5489 116.977 43.9302C118.542 44.5198 119.53 45.9417 119.53 47.6414C119.53 50.2078 117.725 52.6009 114.73 54.0919C113.266 54.751 111.802 55.0979 110.202 55.0979ZM129.607 30.9246C128.892 30.9246 128.245 31.0979 127.768 31.4448C126.441 32.2771 125.76 33.9421 125.76 36.3696C125.76 40.9131 128.007 44.1038 131.207 44.1038C132.16 44.1038 132.909 43.8264 133.556 43.2715C134.543 42.4388 135.054 40.7742 135.054 38.4505C135.054 33.9421 132.841 30.9246 129.607 30.9246ZM130.22 45.7684C124.432 45.7684 122.355 41.4332 122.355 37.3755C122.355 34.5317 123.479 32.3465 125.726 30.7857C127.326 29.7801 129.232 29.2253 130.935 29.2253C135.36 29.2253 138.458 32.4507 138.458 37.098C138.458 40.254 137.233 42.751 134.884 44.2771C133.76 45.04 131.82 45.7684 130.219 45.7684H130.22ZM69.5536 30.9246C68.8386 30.9246 68.192 31.0979 67.7151 31.4448C66.3875 32.2771 65.7065 33.9421 65.7065 36.3696C65.7065 40.9131 67.9534 44.1038 71.1536 44.1038C72.1069 44.1038 72.8557 43.8264 73.5027 43.2715C74.4898 42.4388 75.0007 40.7742 75.0007 38.4505C75.0007 33.9421 72.8217 30.9246 69.5536 30.9246ZM70.1665 45.7684C64.3789 45.7684 62.3022 41.4332 62.3022 37.3755C62.3022 34.5317 63.4256 32.3465 65.6725 30.7857C67.2727 29.7801 69.1791 29.2253 70.8812 29.2253C75.3071 29.2253 78.405 32.4507 78.405 37.098C78.405 40.254 77.1793 42.751 74.8303 44.2771C73.7409 45.04 71.8005 45.7684 70.1665 45.7684ZM31.2544 45.4216C31.1862 45.3177 31.118 45.0056 31.1521 44.624C31.1521 44.3465 31.2203 44.1729 31.2544 44.1038C31.9691 43.9996 32.3437 43.8955 32.752 43.7916C33.433 43.618 33.7054 43.2368 33.7395 42.3697C33.8417 40.2888 33.8417 36.3348 33.8076 33.5952V33.5257C33.8076 33.2136 33.8076 32.832 33.433 32.5545C32.8884 32.208 32.2415 31.8958 31.3904 31.6528C31.084 31.5489 30.8798 31.3753 30.9139 31.1673C30.9139 30.9593 31.118 30.7166 31.5608 30.6472C32.6842 30.543 35.6117 29.8149 36.7692 29.2947C36.8374 29.3638 36.9396 29.5721 36.9396 29.8496L36.9056 30.2309C36.8715 30.6125 36.8374 31.0635 36.8374 31.5142C36.8374 31.6528 36.9737 31.7569 37.1097 31.7569C37.1779 31.7569 37.2461 31.7222 37.3142 31.6875C39.4929 29.9534 41.4674 29.3291 42.4886 29.3291C44.157 29.3291 45.4505 30.127 46.4379 31.7917C46.5058 31.8958 46.5739 31.9302 46.6762 31.9302C46.7444 31.9302 46.8463 31.8958 46.8804 31.8264C48.889 30.2656 50.8976 29.3291 52.2251 29.3291C55.3912 29.3291 57.2638 31.7222 57.2638 35.78C57.2638 36.9244 57.2638 38.4158 57.2297 39.7686C57.2297 40.9822 57.1957 42.0923 57.1957 42.8899C57.1957 43.0632 57.4339 43.618 57.8085 43.7222C58.285 43.9649 58.9319 44.0691 59.783 44.2076H59.8171C59.8853 44.4504 59.7489 45.3521 59.6129 45.5257C59.4084 45.5257 59.102 45.5257 58.7618 45.491C58.1149 45.4563 57.1957 45.4216 56.1745 45.4216C54.0636 45.4216 52.9743 45.4563 51.9187 45.5257C51.8509 45.2483 51.8168 44.416 51.9187 44.2076C52.5316 44.1038 52.838 43.9996 53.2126 43.8955C53.8936 43.6875 54.0636 43.3753 54.0977 42.4736C54.0977 41.8148 54.2337 36.1963 54.0296 34.8435C53.8254 33.4563 52.8039 31.8264 50.557 31.8264C49.706 31.8264 48.3784 32.1733 47.0845 33.1788C47.0167 33.2483 46.9485 33.4216 46.9485 33.5257V33.5605C47.0845 34.2886 47.0845 35.1213 47.0845 36.4043V38.6585C47.0845 40.2193 47.0505 41.676 47.0845 42.7857C47.0845 43.5489 47.5273 43.7222 47.9019 43.8611C48.106 43.8955 48.242 43.9302 48.4124 43.9649C48.7189 44.0344 49.0253 44.1038 49.5018 44.2076C49.57 44.3465 49.57 44.7972 49.4677 45.1788C49.4336 45.3868 49.3655 45.491 49.3317 45.5257C48.1742 45.491 46.9826 45.4563 45.2463 45.4563C44.7358 45.4563 43.8506 45.491 43.1014 45.491C42.4886 45.491 41.9098 45.5257 41.5697 45.5257C41.5356 45.4563 41.4674 45.2136 41.4674 44.832C41.4674 44.5198 41.5356 44.2771 41.6037 44.2076C41.7738 44.1729 41.9098 44.1385 42.0802 44.1385C42.4886 44.0691 42.8291 43.9996 43.1696 43.9302C43.7483 43.7569 43.9525 43.4448 43.9866 42.6819C44.0888 40.9478 44.1908 35.9883 43.9525 34.7396C43.5442 32.7281 42.4208 31.7222 40.6163 31.7222C39.5611 31.7222 38.2332 32.2424 37.1438 33.075C36.9737 33.2136 36.8374 33.5604 36.8374 33.8726V35.9188C36.8374 38.4158 36.8374 41.5374 36.8715 42.8899C36.9056 43.3059 37.0416 43.7916 37.8248 43.9649C37.9949 43.9996 38.2672 44.0691 38.6077 44.1038L39.2206 44.2076C39.2887 44.416 39.2547 45.2483 39.1183 45.5257C38.7778 45.5257 38.3695 45.491 37.8927 45.491C37.1779 45.4563 36.2586 45.4216 35.2375 45.4216C34.0459 45.4216 33.1948 45.4563 32.5138 45.491C32.0373 45.4216 31.6627 45.4216 31.2544 45.4216Z" fill="#442D22"/>
<path fill-rule="evenodd" clip-rule="evenodd" d="M13.347 53.7454L11.9513 53.2597C11.9513 53.2597 12.1217 46.0112 9.56841 45.491C7.86623 43.4795 9.84074 -39.8263 15.9684 45.2136C15.9684 45.2136 13.8579 46.2886 13.4833 48.1269C13.0747 49.9304 13.347 53.7454 13.347 53.7454Z" fill="black"/>
<path fill-rule="evenodd" clip-rule="evenodd" d="M13.347 53.7454L11.9513 53.2597C11.9513 53.2597 12.1217 46.0112 9.56841 45.491C7.86623 43.4795 9.84074 -39.8263 15.9684 45.2136C15.9684 45.2136 13.8579 46.2886 13.4833 48.1269C13.0747 49.9304 13.347 53.7454 13.347 53.7454Z" fill="#A6A385"/>
<path fill-rule="evenodd" clip-rule="evenodd" d="M14.0961 46.7389C14.0961 46.7389 26.3177 38.5539 23.4581 21.525C20.7006 9.14375 14.198 5.08599 13.4833 3.52519C12.7003 2.41543 11.9512 0.473358 11.9512 0.473358L12.4621 34.9122C12.4621 34.9469 11.4065 45.4555 14.0961 46.7389Z" fill="black"/>
<path fill-rule="evenodd" clip-rule="evenodd" d="M14.0961 46.7389C14.0961 46.7389 26.3177 38.5539 23.4581 21.525C20.7006 9.14375 14.198 5.08599 13.4833 3.52519C12.7003 2.41543 11.9512 0.473358 11.9512 0.473358L12.4621 34.9122C12.4621 34.9469 11.4065 45.4555 14.0961 46.7389Z" fill="#499D4A"/>
<path fill-rule="evenodd" clip-rule="evenodd" d="M11.2365 47.1904C11.2365 47.1904 -0.23631 39.2134 0.444687 25.1675C1.09128 11.1213 9.19382 4.21974 10.7597 2.9711C11.7812 1.86134 11.8152 1.44502 11.8834 0.335266C12.5982 1.89607 12.4622 23.6762 12.5641 26.2426C12.8705 36.1269 12.0194 45.3178 11.2365 47.1904Z" fill="black"/>
<path fill-rule="evenodd" clip-rule="evenodd" d="M11.2365 47.1904C11.2365 47.1904 -0.23631 39.2134 0.444687 25.1675C1.09128 11.1213 9.19382 4.21974 10.7597 2.9711C11.7812 1.86134 11.8152 1.44502 11.8834 0.335266C12.5982 1.89607 12.4622 23.6762 12.5641 26.2426C12.8705 36.1269 12.0194 45.3178 11.2365 47.1904Z" fill="#58AA50"/>
</svg>
