<svg width="124" height="80" viewBox="0 0 124 80" fill="none" xmlns="http://www.w3.org/2000/svg">
<path d="M61.1406 79.3861C60.7249 79.3861 60.3369 79.2694 59.9766 79.0652L56.2906 76.7605C55.7363 76.4396 56.0135 76.3229 56.1798 76.2646C56.928 76.002 57.0666 75.9437 57.8426 75.4769C57.9258 75.4186 58.0366 75.4478 58.1197 75.5061L60.9466 77.2856C61.0575 77.344 61.196 77.344 61.2792 77.2856L72.3371 70.5467C72.448 70.4884 72.5034 70.3717 72.5034 70.2258V56.7772C72.5034 56.6313 72.448 56.5147 72.3371 56.4563L61.2792 49.7466C61.1683 49.6882 61.0297 49.6882 60.9466 49.7466L49.8886 56.4563C49.7778 56.5147 49.7223 56.6605 49.7223 56.7772V70.2258C49.7223 70.3425 49.7778 70.4884 49.8886 70.5467L52.9095 72.3846C54.5446 73.2598 55.57 72.2388 55.57 71.2177V57.9441C55.57 57.7691 55.7086 57.594 55.9026 57.594H57.316C57.4823 57.594 57.6486 57.7399 57.6486 57.9441V71.2177C57.6486 73.5224 56.4569 74.8643 54.3783 74.8643C53.7409 74.8643 53.2421 74.8643 51.8286 74.135L48.9186 72.3846C48.1981 71.947 47.7546 71.1302 47.7546 70.255V56.8064C47.7546 55.9312 48.1981 55.1144 48.9186 54.6768L59.9766 47.9379C60.6695 47.5295 61.6117 47.5295 62.3046 47.9379L73.3626 54.6768C74.0831 55.1144 74.5266 55.9312 74.5266 56.8064V70.255C74.5266 71.1302 74.0831 71.947 73.3626 72.3846L62.3046 79.1235C61.9443 79.2985 61.5286 79.3861 61.1406 79.3861ZM64.5494 70.1383C59.6995 70.1383 58.7017 67.8045 58.7017 65.8208C58.7017 65.6457 58.8403 65.4707 59.0343 65.4707H60.4755C60.6417 65.4707 60.7803 65.5874 60.7803 65.7624C61.002 67.3086 61.6395 68.0671 64.5772 68.0671C66.9051 68.0671 67.9029 67.5128 67.9029 66.2C67.9029 65.4415 67.6257 64.8872 63.9952 64.508C60.9743 64.1871 59.0897 63.4869 59.0897 60.9489C59.0897 58.5859 60.9743 57.1856 64.1337 57.1856C67.6811 57.1856 69.4271 58.4692 69.6489 61.2698C69.6489 61.3573 69.6211 61.4448 69.5657 61.5324C69.5103 61.5907 69.4271 61.6491 69.344 61.6491H67.9029C67.7643 61.6491 67.6257 61.5324 67.598 61.3865C67.2654 59.782 66.4063 59.2569 64.1337 59.2569C61.584 59.2569 61.2792 60.1904 61.2792 60.8906C61.2792 61.7366 61.6394 61.9991 65.076 62.4659C68.4849 62.9327 70.0923 63.6036 70.0923 66.1125C70.0646 68.6797 68.0691 70.1383 64.5494 70.1383Z" fill="#539E43"/>
<path d="M26.8304 26.7877C26.8304 26.2626 26.5533 25.7667 26.1099 25.5041L14.3591 18.386C14.1651 18.2693 13.9433 18.211 13.7216 18.1818H13.6108C13.3891 18.1818 13.1673 18.2693 12.9733 18.386L1.22252 25.5041C0.779095 25.7667 0.501953 26.2626 0.501953 26.7877L0.529667 45.9251C0.529667 46.1876 0.668238 46.4502 0.889952 46.5669C1.11167 46.7127 1.38881 46.7127 1.58281 46.5669L8.56678 42.366C9.01021 42.1034 9.28735 41.6075 9.28735 41.0824V32.1264C9.28735 31.6012 9.5645 31.1053 10.0079 30.8428L12.9733 29.034C13.1951 28.8882 13.4445 28.8298 13.6939 28.8298C13.9433 28.8298 14.1928 28.8882 14.3868 29.034L17.3522 30.8428C17.7956 31.1053 18.0728 31.6012 18.0728 32.1264V41.0824C18.0728 41.6075 18.3499 42.1034 18.7933 42.366L25.7773 46.5669C25.999 46.7127 26.2762 46.7127 26.4979 46.5669C26.7196 46.4502 26.8582 46.1876 26.8582 45.9251L26.8304 26.7877Z" fill="#333333"/>
<path d="M83.3127 0.444635C83.0909 0.327944 82.8138 0.327944 82.6198 0.444635C82.3981 0.590498 82.2595 0.82388 82.2595 1.08643V20.0487C82.2595 20.2237 82.1764 20.3988 82.0101 20.5155C81.8438 20.603 81.6775 20.603 81.5112 20.5155L78.5735 18.7359C78.1301 18.4734 77.6035 18.4734 77.1601 18.7359L65.4093 25.8833C64.9659 26.1458 64.6887 26.6417 64.6887 27.1669V41.4323C64.6887 41.9574 64.9659 42.4534 65.4093 42.7159L77.1601 49.8632C77.6035 50.1258 78.1301 50.1258 78.5735 49.8632L90.3243 42.7159C90.7678 42.4534 91.0449 41.9574 91.0449 41.4323V5.87076C91.0449 5.31648 90.7678 4.82054 90.3243 4.55799L83.3127 0.444635ZM82.2318 36.7355C82.2318 36.8814 82.1764 36.9981 82.0655 37.0564L78.047 39.5069C77.9361 39.5653 77.7975 39.5653 77.6867 39.5069L73.6681 37.0564C73.5573 36.9981 73.5018 36.8522 73.5018 36.7355V31.8345C73.5018 31.6886 73.5573 31.5719 73.6681 31.5136L77.6867 29.0631C77.7975 29.0047 77.9361 29.0047 78.047 29.0631L82.0655 31.5136C82.1764 31.5719 82.2318 31.7178 82.2318 31.8345V36.7355Z" fill="#333333"/>
<path d="M122.417 31.7178C122.86 31.4552 123.11 30.9593 123.11 30.4342V26.9626C123.11 26.4375 122.832 25.9416 122.417 25.679L110.749 18.5609C110.306 18.2983 109.779 18.2983 109.336 18.5609L97.5848 25.7082C97.1414 25.9708 96.8643 26.4667 96.8643 26.9918V41.2573C96.8643 41.7824 97.1414 42.2783 97.5848 42.5409L109.252 49.5423C109.696 49.8049 110.222 49.8049 110.638 49.5423L117.705 45.3998C117.927 45.2831 118.066 45.0206 118.066 44.758C118.066 44.4955 117.927 44.2329 117.705 44.1162L105.899 36.9689C105.677 36.823 105.539 36.5896 105.539 36.3271V31.8637C105.539 31.6011 105.677 31.3386 105.899 31.2219L109.585 29.0047C109.807 28.8589 110.084 28.8589 110.306 29.0047L113.992 31.2219C114.213 31.3677 114.352 31.6011 114.352 31.8637V35.3644C114.352 35.6269 114.49 35.8895 114.712 36.0062C114.934 36.1521 115.211 36.1521 115.433 36.0062L122.417 31.7178Z" fill="#333333"/>
<path d="M109.862 31.0468C109.945 30.9885 110.056 30.9885 110.139 31.0468L112.384 32.4179C112.467 32.4763 112.523 32.5638 112.523 32.6805V35.4227C112.523 35.5394 112.467 35.6269 112.384 35.6853L110.139 37.0564C110.056 37.1147 109.945 37.1147 109.862 37.0564L107.617 35.6853C107.534 35.6269 107.479 35.5394 107.479 35.4227V32.6805C107.479 32.5638 107.534 32.4763 107.617 32.4179L109.862 31.0468Z" fill="#539E43"/>
<mask id="mask0" mask-type="alpha" maskUnits="userSpaceOnUse" x="32" y="18" width="27" height="32">
<path d="M46.4798 18.6192C46.0363 18.3567 45.5098 18.3567 45.0663 18.6192L33.3987 25.7082C32.9552 25.9708 32.7058 26.4667 32.7058 26.9918V41.1989C32.7058 41.724 32.983 42.22 33.3987 42.4825L45.0663 49.5715C45.5098 49.8341 46.0363 49.8341 46.4798 49.5715L58.1474 42.4825C58.5909 42.22 58.8403 41.724 58.8403 41.1989V26.9918C58.8403 26.4667 58.5632 25.9708 58.1474 25.7082L46.4798 18.6192Z" fill="white"/>
</mask>
<g mask="url(#mask0)">
<path d="M46.4798 18.6192C46.0363 18.3567 45.5098 18.3567 45.0663 18.6192L33.3987 25.7082C32.9552 25.9708 32.7058 26.4667 32.7058 26.9918V41.1989C32.7058 41.724 32.983 42.22 33.3987 42.4825L45.0663 49.5715C45.5098 49.8341 46.0363 49.8341 46.4798 49.5715L58.1474 42.4825C58.5909 42.22 58.8403 41.724 58.8403 41.1989V26.9918C58.8403 26.4667 58.5632 25.9708 58.1474 25.7082L46.4798 18.6192Z" fill="url(#paint0_linear)"/>
<path d="M58.1748 25.7061L46.4516 18.6171C46.3408 18.5588 46.2022 18.5005 46.0914 18.4713L32.9548 42.1595C33.0657 42.3054 33.2043 42.4221 33.3428 42.5096L45.0659 49.5986C45.3985 49.8028 45.7865 49.8611 46.1468 49.7444L58.4796 25.9978C58.3965 25.8812 58.2856 25.7936 58.1748 25.7061Z" fill="url(#paint1_linear)"/>
<path fill-rule="evenodd" clip-rule="evenodd" d="M58.2026 42.4827C58.5352 42.2785 58.7846 41.9284 58.8955 41.5492L46.0361 18.4444C45.7035 18.386 45.3433 18.4152 45.0384 18.6194L33.3984 25.6792L45.953 49.7759C46.1193 49.7467 46.3133 49.6883 46.4795 49.6008L58.2026 42.4827Z" fill="url(#paint2_linear)"/>
<path fill-rule="evenodd" clip-rule="evenodd" d="M58.2024 42.4823L46.507 49.5713C46.3408 49.6588 46.1745 49.7171 45.9805 49.7463L46.2022 50.1839L59.1724 42.2781V42.103L58.8399 41.5196C58.7844 41.928 58.535 42.2781 58.2024 42.4823Z" fill="url(#paint3_linear)"/>
<path fill-rule="evenodd" clip-rule="evenodd" d="M58.2024 42.4823L46.507 49.5713C46.3408 49.6588 46.1745 49.7171 45.9805 49.7463L46.2022 50.1839L59.1724 42.2781V42.103L58.8399 41.5196C58.7844 41.928 58.535 42.2781 58.2024 42.4823Z" fill="url(#paint4_linear)"/>
</g>
<defs>
<linearGradient id="paint0_linear" x1="50.5265" y1="23.9038" x2="36.7836" y2="44.4176" gradientUnits="userSpaceOnUse">
<stop stop-color="#41873F"/>
<stop offset="0.3288" stop-color="#418B3D"/>
<stop offset="0.6352" stop-color="#419637"/>
<stop offset="0.9319" stop-color="#3FA92D"/>
<stop offset="1" stop-color="#3FAE2A"/>
</linearGradient>
<linearGradient id="paint1_linear" x1="44.0011" y1="35.7571" x2="76.7578" y2="18.8502" gradientUnits="userSpaceOnUse">
<stop offset="0.1376" stop-color="#41873F"/>
<stop offset="0.4032" stop-color="#54A044"/>
<stop offset="0.7136" stop-color="#66B848"/>
<stop offset="0.9081" stop-color="#6CC04A"/>
</linearGradient>
<linearGradient id="paint2_linear" x1="32.2794" y1="34.096" x2="59.2778" y2="34.096" gradientUnits="userSpaceOnUse">
<stop offset="0.0919165" stop-color="#6CC04A"/>
<stop offset="0.2864" stop-color="#66B848"/>
<stop offset="0.5968" stop-color="#54A044"/>
<stop offset="0.8624" stop-color="#41873F"/>
</linearGradient>
<linearGradient id="paint3_linear" x1="32.2792" y1="45.8756" x2="59.2776" y2="45.8756" gradientUnits="userSpaceOnUse">
<stop offset="0.0919165" stop-color="#6CC04A"/>
<stop offset="0.2864" stop-color="#66B848"/>
<stop offset="0.5968" stop-color="#54A044"/>
<stop offset="0.8624" stop-color="#41873F"/>
</linearGradient>
<linearGradient id="paint4_linear" x1="63.2109" y1="23.2319" x2="55.661" y2="60.8155" gradientUnits="userSpaceOnUse">
<stop stop-color="#41873F"/>
<stop offset="0.3288" stop-color="#418B3D"/>
<stop offset="0.6352" stop-color="#419637"/>
<stop offset="0.9319" stop-color="#3FA92D"/>
<stop offset="1" stop-color="#3FAE2A"/>
</linearGradient>
</defs>
</svg>
