<svg width="86" height="80" viewBox="0 0 86 80" fill="none" xmlns="http://www.w3.org/2000/svg">
<path d="M0.666016 39.8998C0.666016 46.521 6.89555 52.7022 16.7169 56.1863C14.7557 66.4338 16.3654 74.6933 21.7422 77.9117C27.2689 81.2195 35.5024 78.9298 43.317 71.8401C50.9345 78.6436 58.6334 81.3211 64.0051 78.0936C69.5265 74.7761 71.2059 65.9565 69.1904 55.3891C79.4199 51.8789 85.142 46.6082 85.142 39.8998C85.142 33.4321 78.9009 27.8367 69.212 24.3749C71.3818 13.3707 69.5433 5.31171 63.944 1.96043C58.5457 -1.27041 50.7574 1.5456 43.0279 8.52726C34.9866 1.11678 27.2752 -1.14574 21.6814 2.21531C16.2883 5.45534 14.7493 13.8649 16.7169 24.3022C7.22718 27.7362 0.666016 33.458 0.666016 39.8998Z" fill="black"/>
<path d="M67.1599 27.8125C66.3816 27.5345 65.5752 27.2715 64.7449 27.0227C64.8813 26.4446 65.0066 25.874 65.118 25.3131C66.9461 16.1029 65.7508 8.68309 61.6692 6.24018C57.7554 3.89775 51.3548 6.34011 44.8905 12.1789C44.2689 12.7404 43.6455 13.3348 43.0224 13.9578C42.6072 13.5456 42.1927 13.1473 41.7793 12.7663C35.0045 6.52305 28.2138 3.89207 24.1362 6.34205C20.2262 8.69127 19.0683 15.6666 20.7139 24.3952C20.8728 25.2382 21.0585 26.0992 21.2686 26.9746C20.3075 27.2577 19.3797 27.5596 18.4919 27.8807C10.5492 30.7548 5.47656 35.2592 5.47656 39.9315C5.47656 44.757 10.922 49.5971 19.195 52.5319C19.8478 52.7635 20.5253 52.9825 21.2234 53.1904C20.9968 54.1371 20.7997 55.0649 20.6343 55.9698C19.0652 64.5469 20.2905 71.3574 24.1901 73.6918C28.2181 76.1025 34.978 73.6246 41.5606 67.6527C42.0808 67.1806 42.603 66.68 43.126 66.1553C43.804 66.8329 44.4809 67.4742 45.1542 68.0757C51.5301 73.7702 57.8274 76.0697 61.7234 73.7288C65.7473 71.3111 67.0551 63.995 65.3573 55.0937C65.2276 54.4139 65.0767 53.7194 64.9072 53.0125C65.382 52.8669 65.848 52.7165 66.3024 52.5602C74.903 49.6026 80.4988 44.8215 80.4988 39.9315C80.4988 35.2423 75.2626 30.7076 67.1599 27.8125Z" fill="#53C1DE"/>
<path d="M65.2948 49.4027C64.8846 49.5436 64.4636 49.6799 64.0347 49.812C63.0853 46.6923 61.8038 43.375 60.2357 39.9476C61.7321 36.6019 62.964 33.3269 63.8869 30.2275C64.6543 30.458 65.3992 30.7011 66.117 30.9576C73.0594 33.4381 77.2942 37.1055 77.2942 39.9314C77.2942 42.9414 72.7207 46.8489 65.2948 49.4027ZM62.2135 55.7396C62.9643 59.6756 63.0715 63.2342 62.5742 66.0162C62.1274 68.5159 61.2288 70.1825 60.1178 70.85C57.7535 72.2704 52.6974 70.4241 47.2446 65.5541C46.6196 64.9958 45.9899 64.3997 45.3583 63.7688C47.4722 61.3693 49.5849 58.5797 51.6469 55.4817C55.2737 55.1477 58.7001 54.6016 61.8074 53.8561C61.9605 54.4968 62.0964 55.1252 62.2135 55.7396ZM31.0536 70.6046C28.7437 71.4513 26.9039 71.4755 25.7918 70.81C23.4254 69.3934 22.4416 63.9252 23.7835 56.59C23.9372 55.75 24.1202 54.8871 24.331 54.0051C27.4043 54.7104 30.8056 55.2179 34.4411 55.5238C36.517 58.5554 38.6907 61.3418 40.8813 63.7817C40.4027 64.2613 39.9259 64.7178 39.4519 65.148C36.5411 67.7887 33.6242 69.6622 31.0536 70.6046ZM20.2318 49.3842C16.5736 48.0866 13.5526 46.4 11.4818 44.5595C9.62108 42.9057 8.68164 41.2637 8.68164 39.9314C8.68164 37.0961 12.7544 33.4797 19.5471 31.0217C20.3713 30.7234 21.2341 30.4423 22.1295 30.1783C23.0683 33.3477 24.2998 36.6614 25.7859 40.0123C24.2806 43.4129 23.0316 46.7795 22.0836 49.986C21.4453 49.7956 20.8268 49.5952 20.2318 49.3842ZM23.8594 23.7563C22.4495 16.2778 23.3858 10.6364 25.7421 9.22075C28.252 7.71268 33.802 9.86287 39.6515 15.2536C40.0254 15.5982 40.4008 15.9588 40.7772 16.3319C38.5975 18.7611 36.4436 21.5266 34.3862 24.5403C30.8579 24.8797 27.4804 25.425 24.3751 26.1551C24.1799 25.34 24.0069 24.5392 23.8594 23.7563ZM56.2206 32.0498C55.4782 30.719 54.7161 29.4196 53.9392 28.1557C56.3329 28.4698 58.6263 28.8867 60.78 29.3969C60.1334 31.5476 59.3275 33.7964 58.3788 36.1017C57.6983 34.7607 56.9785 33.4087 56.2206 32.0498ZM43.0238 18.7091C44.502 20.3713 45.9824 22.2271 47.4385 24.2407C45.9712 24.1687 44.4857 24.1313 42.988 24.1313C41.5044 24.1313 40.0298 24.1679 38.5716 24.2386C40.0292 22.2437 41.5224 20.3904 43.0238 18.7091ZM29.7424 32.0728C29.0009 33.4073 28.2945 34.752 27.6246 36.0992C26.6913 33.8019 25.8929 31.5429 25.2407 29.3617C27.3812 28.8645 29.6638 28.458 32.0422 28.1499C31.2543 29.4254 30.486 30.7343 29.7424 32.0725V32.0728ZM32.1107 51.9501C29.6533 51.6656 27.3364 51.28 25.1965 50.7965C25.8591 48.5764 26.6752 46.2691 27.6282 43.9224C28.2998 45.2686 29.009 46.6138 29.7551 47.9513H29.7552C30.5152 49.3138 31.3025 50.6485 32.1107 51.9501ZM43.1124 61.3881C41.5934 59.6871 40.0783 57.8055 38.5986 55.7816C40.035 55.8401 41.4995 55.87 42.988 55.87C44.5171 55.87 46.0288 55.8343 47.5167 55.7655C46.0558 57.8259 44.5807 59.7104 43.1124 61.3881ZM58.4094 43.8028C59.4122 46.1749 60.2575 48.4701 60.9286 50.6524C58.7534 51.1674 56.4049 51.5823 53.9304 51.8905C54.7092 50.6096 55.478 49.2879 56.2334 47.9284C56.9976 46.553 57.7233 45.1755 58.4094 43.8028ZM53.4573 46.2666C52.2845 48.3771 51.0805 50.3917 49.8583 52.2934C47.632 52.4586 45.3321 52.5437 42.988 52.5437C40.6533 52.5437 38.3824 52.4684 36.1955 52.3211C34.924 50.3945 33.6938 48.3739 32.5286 46.2848H32.5288C31.3666 44.2014 30.297 42.1004 29.3278 40.0112C30.2967 37.9171 31.3636 35.8138 32.5191 33.7341L32.5188 33.7346C33.6774 31.6494 34.8967 29.6386 36.1565 27.724C38.3877 27.549 40.6756 27.4576 42.9878 27.4576H42.988C45.3106 27.4576 47.6015 27.5497 49.832 27.7262C51.0725 29.6268 52.2836 31.6311 53.4467 33.7165C54.6231 35.8254 55.7037 37.9148 56.6809 39.9639C55.7066 42.0483 54.6284 44.1587 53.4573 46.2666ZM60.0686 9.1218C62.5809 10.6254 63.5579 16.6896 61.9794 24.6416C61.8787 25.149 61.7654 25.6658 61.6423 26.1896C58.5297 25.4442 55.1499 24.8896 51.6112 24.545C49.5498 21.4982 47.4136 18.7284 45.2693 16.3304C45.8458 15.7548 46.4215 15.2059 46.9948 14.688C52.5334 9.68533 57.7101 7.71018 60.0686 9.1218Z" fill="black"/>
<path d="M42.9878 32.9784C46.6876 32.9784 49.687 36.0913 49.687 39.9314C49.687 43.7714 46.6876 46.8844 42.9878 46.8844C39.288 46.8844 36.2886 43.7714 36.2886 39.9314C36.2886 36.0913 39.288 32.9784 42.9878 32.9784Z" fill="#53C1DE"/>
</svg>
